<svg id="Layer_1" data-name="Layer 1" xmlns="http://www.w3.org/2000/svg" xmlns:xlink="http://www.w3.org/1999/xlink" viewBox="0 0 250 150"><defs><style>.cls-1{fill:#193762;}.cls-2{fill:url(#linear-gradient);}.cls-3{fill:url(#linear-gradient-2);}</style><linearGradient id="linear-gradient" x1="19.53" y1="75.53" x2="49.97" y2="75.53" gradientTransform="translate(0.03 -0.53) rotate(0.01)" gradientUnits="userSpaceOnUse"><stop offset="0.18" stop-color="#1ba2dc"/><stop offset="0.87" stop-color="#0a4b6f"/></linearGradient><linearGradient id="linear-gradient-2" x1="18.89" y1="75.53" x2="33.13" y2="75.53" gradientTransform="translate(0.03 -0.53) rotate(0.01)" gradientUnits="userSpaceOnUse"><stop offset="0.29" stop-color="#1ba2dc"/><stop offset="1" stop-color="#0a4b6f"/></linearGradient></defs><path class="cls-1" d="M50,75.88l-11,19a1.78,1.78,0,0,1-1.53.87H21.31a1.75,1.75,0,0,1-1.38-2.83l5.66-7.29A1.77,1.77,0,0,1,27,84.92h4.3A1.76,1.76,0,0,0,32.8,84l4.72-8.16a1.78,1.78,0,0,0,0-1.76L32.8,66a1.76,1.76,0,0,0-1.52-.88H27a1.74,1.74,0,0,1-1.39-.68l-5.66-7.26a1.76,1.76,0,0,1,1.39-2.83l16.21,0a1.74,1.74,0,0,1,1.52.88l11,19A1.78,1.78,0,0,1,50,75.88Z"/><path class="cls-1" d="M29.27,68.75H22.79a.65.65,0,0,0-.56.32L19,74.68a.66.66,0,0,0,0,.64l3.24,5.61a.65.65,0,0,0,.56.32h6.48a.63.63,0,0,0,.55-.32l3.24-5.61a.66.66,0,0,0,0-.64l-3.24-5.61A.62.62,0,0,0,29.27,68.75Z"/><path class="cls-2" d="M50,74.12v1.76l-11,19a1.78,1.78,0,0,1-1.53.87H21.31a1.75,1.75,0,0,1-1.38-2.83l5.66-7.29A1.77,1.77,0,0,1,27,84.92h4.3A1.76,1.76,0,0,0,32.8,84l4.72-8.16a1.78,1.78,0,0,0,0-1.76L32.8,66a1.76,1.76,0,0,0-1.52-.88H27a1.74,1.74,0,0,1-1.39-.68l-5.66-7.26a1.76,1.76,0,0,1,1.39-2.83l16.21,0a1.74,1.74,0,0,1,1.52.88Z"/><path class="cls-3" d="M29.27,68.75H22.79a.65.65,0,0,0-.56.32L19,74.68a.66.66,0,0,0,0,.64l3.24,5.61a.65.65,0,0,0,.56.32h6.48a.63.63,0,0,0,.55-.32l3.24-5.61a.66.66,0,0,0,0-.64l-3.24-5.61A.62.62,0,0,0,29.27,68.75Z"/><path class="cls-1" d="M63.84,56.65a2.66,2.66,0,0,1,4.54,1.9,2.61,2.61,0,0,1-.78,1.87,2.66,2.66,0,1,1-3.76-3.77Zm3.81,11.13V90.15H63.76V67.78Z"/><path class="cls-1" d="M78.1,56.12v34H74v-34Zm-1.84,34V86h7.92a14.76,14.76,0,0,0,5.25-.9,11.15,11.15,0,0,0,6.71-6.63,16,16,0,0,0,0-10.7,11.15,11.15,0,0,0-6.71-6.63,14.76,14.76,0,0,0-5.25-.9H76.26V56.12h7.92A17.83,17.83,0,0,1,93,58.25a15.63,15.63,0,0,1,6,6,17.6,17.6,0,0,1,2.19,8.92A17.6,17.6,0,0,1,99,82.05a15.56,15.56,0,0,1-6,6,17.83,17.83,0,0,1-8.8,2.14Z"/><path class="cls-1" d="M108,89.15A10.15,10.15,0,0,1,104.23,85,13.22,13.22,0,0,1,102.9,79a13,13,0,0,1,1.38-6.12,10.07,10.07,0,0,1,3.89-4.08A11.27,11.27,0,0,1,114,67.3a11.05,11.05,0,0,1,5.67,1.38,9.27,9.27,0,0,1,3.62,4,13.83,13.83,0,0,1,1.26,6.13c0,.23,0,.46,0,.71s0,.39,0,.46h-19.1V76.63h16l-1.56,2.24a3.3,3.3,0,0,0,.3-.76,3.46,3.46,0,0,0,.14-.85,7.09,7.09,0,0,0-.8-3.45,5.91,5.91,0,0,0-2.21-2.28A6.43,6.43,0,0,0,114,70.7a7.28,7.28,0,0,0-3.81,1,6.22,6.22,0,0,0-2.44,2.72,10.54,10.54,0,0,0-.89,4.35,10.91,10.91,0,0,0,.82,4.47A6,6,0,0,0,110.09,86,7.37,7.37,0,0,0,114,87a8.09,8.09,0,0,0,4-1,8.24,8.24,0,0,0,3-3l3.16,2a11.72,11.72,0,0,1-4.4,4.26,13,13,0,0,1-6.24,1.43A10.27,10.27,0,0,1,108,89.15Z"/><path class="cls-1" d="M132.21,83.1a7.5,7.5,0,0,0,2.72,2.84,7.36,7.36,0,0,0,3.91,1,10.11,10.11,0,0,0,3.38-.56A9.46,9.46,0,0,0,145,84.92a5.54,5.54,0,0,0,1.65-2v4.86a7.52,7.52,0,0,1-3.33,2.12,13.46,13.46,0,0,1-4.45.75,11.64,11.64,0,0,1-5.88-1.5A11.15,11.15,0,0,1,128.8,85a12.59,12.59,0,0,1,0-12A11.24,11.24,0,0,1,133,68.8a11.64,11.64,0,0,1,5.88-1.5,13.46,13.46,0,0,1,4.45.75,7.52,7.52,0,0,1,3.33,2.12V75A5.22,5.22,0,0,0,145,73a9.66,9.66,0,0,0-2.75-1.49,10.11,10.11,0,0,0-3.38-.56,7.53,7.53,0,0,0-3.91,1,7.25,7.25,0,0,0-2.72,2.85,8.44,8.44,0,0,0-1,4.15A8.35,8.35,0,0,0,132.21,83.1Z"/><path class="cls-1" d="M153.85,67.78V90.15H150V67.78Z"/><path class="cls-1" d="M162.4,85.19a6.71,6.71,0,0,0,2,1.38,6,6,0,0,0,2.5.51,4.08,4.08,0,0,0,2.6-.75,2.47,2.47,0,0,0,.95-2.07,2.76,2.76,0,0,0-.75-2,6.5,6.5,0,0,0-1.92-1.37c-.78-.37-1.61-.72-2.48-1a27.76,27.76,0,0,1-2.94-1.39,7.63,7.63,0,0,1-2.48-2.09,5.08,5.08,0,0,1-1-3.23,5.14,5.14,0,0,1,1-3.31,6.15,6.15,0,0,1,2.72-1.94,9.78,9.78,0,0,1,3.47-.63,9.64,9.64,0,0,1,3.38.58,9.88,9.88,0,0,1,2.8,1.56,7.24,7.24,0,0,1,1.89,2.23l-3.11,2a7.48,7.48,0,0,0-2.31-2.09,5.91,5.91,0,0,0-3.13-.83,4,4,0,0,0-2.09.53,1.8,1.8,0,0,0-.88,1.66,2.14,2.14,0,0,0,.68,1.55,6.77,6.77,0,0,0,1.75,1.22c.72.35,1.46.69,2.24,1a30.12,30.12,0,0,1,3.55,1.68,8,8,0,0,1,2.55,2.16,5.3,5.3,0,0,1,.95,3.26,6.34,6.34,0,0,1-2.12,4.86,7.91,7.91,0,0,1-5.56,1.94,9.91,9.91,0,0,1-4-.8,9.62,9.62,0,0,1-3-2.07,9.91,9.91,0,0,1-1.87-2.57l3.07-1.9A12.74,12.74,0,0,0,162.4,85.19Z"/><path class="cls-1" d="M182.19,67.78V90.15H178.3V67.78Z"/><path class="cls-1" d="M187.85,72.94A11.24,11.24,0,0,1,192,68.8a12.33,12.33,0,0,1,11.79,0,11.31,11.31,0,0,1,4.13,4.14,12.59,12.59,0,0,1,0,12,11.22,11.22,0,0,1-4.13,4.16,12.33,12.33,0,0,1-11.79,0A11.15,11.15,0,0,1,187.85,85a12.59,12.59,0,0,1,0-12Zm3.4,10.16A7.6,7.6,0,0,0,194,85.94a7.81,7.81,0,0,0,7.82,0,7.6,7.6,0,0,0,2.73-2.84,8.45,8.45,0,0,0,1-4.14,8.54,8.54,0,0,0-1-4.15A7.34,7.34,0,0,0,201.8,72,8,8,0,0,0,194,72a7.34,7.34,0,0,0-2.73,2.85,8.54,8.54,0,0,0-1,4.15A8.45,8.45,0,0,0,191.25,83.1Z"/><path class="cls-1" d="M226,72.35a4.43,4.43,0,0,0-3.55-1.41,6.12,6.12,0,0,0-3,.71,4.9,4.9,0,0,0-2,2,5.86,5.86,0,0,0-.71,2.91V90.15h-3.89V67.78h3.89v3.5a7.13,7.13,0,0,1,6.66-4A7.07,7.07,0,0,1,229,69.66a9.38,9.38,0,0,1,2.06,6.39v14.1H227.2V76.53A6.26,6.26,0,0,0,226,72.35Z"/></svg>