<svg width="92" height="92" viewBox="0 0 92 92" fill="none" xmlns="http://www.w3.org/2000/svg">
<path d="M46.3584 83.7704V49.6895" stroke="#80CCF9" stroke-width="5.04904" stroke-linecap="round" stroke-linejoin="round"/>
<path d="M58.3625 8.8296C59.3057 8.30227 60.3682 8.02539 61.4487 8.02539C62.5293 8.02539 63.5918 8.30227 64.535 8.8296L80.4394 17.7664C81.5658 18.4033 82.5029 19.3279 83.1549 20.4456C83.8069 21.5634 84.1505 22.8342 84.1505 24.1282C84.1505 25.4222 83.8069 26.693 83.1549 27.8107C82.5029 28.9284 81.5658 29.853 80.4394 30.49L34.3165 56.4673C33.3705 57.0068 32.3003 57.2906 31.2113 57.2906C30.1223 57.2906 29.0521 57.0068 28.1062 56.4673L12.2774 47.5305C11.1511 46.8935 10.214 45.9689 9.56198 44.8512C8.90997 43.7335 8.56641 42.4627 8.56641 41.1687C8.56641 39.8747 8.90997 38.6039 9.56198 37.4861C10.214 36.3684 11.1511 35.4438 12.2774 34.8069L58.3625 8.8296Z" stroke="#1EA2EC" stroke-width="5.04904" stroke-linecap="round" stroke-linejoin="round"/>
<path d="M76.6529 49.6895V64.3443C76.6544 65.7736 76.2631 67.1758 75.5218 68.3979C74.7806 69.62 73.7178 70.6149 72.4496 71.2741L49.7289 82.9374C48.6879 83.4784 47.5319 83.7608 46.3587 83.7608C45.1854 83.7608 44.0295 83.4784 42.9884 82.9374L20.2678 71.2741C18.9995 70.6149 17.9368 69.62 17.1955 68.3979C16.4542 67.1758 16.063 65.7736 16.0645 64.3443V49.6895" stroke="#80CCF9" stroke-width="5.04904" stroke-linecap="round" stroke-linejoin="round"/>
<path d="M80.4394 47.5306C81.5658 46.8936 82.5029 45.969 83.1549 44.8513C83.8069 43.7336 84.1505 42.4628 84.1505 41.1688C84.1505 39.8748 83.8069 38.604 83.1549 37.4862C82.5029 36.3685 81.5658 35.4439 80.4394 34.807L34.3544 8.79184C33.4148 8.25378 32.3509 7.9707 31.2681 7.9707C30.1854 7.9707 29.1215 8.25378 28.1819 8.79184L12.2774 17.7665C11.1511 18.4034 10.214 19.328 9.56198 20.4458C8.90997 21.5635 8.56641 22.8343 8.56641 24.1283C8.56641 25.4223 8.90997 26.6931 9.56198 27.8108C10.214 28.9285 11.1511 29.8531 12.2774 30.4901L58.4004 56.4674C59.3395 57.0069 60.4036 57.2908 61.4866 57.2908C62.5696 57.2908 63.6337 57.0069 64.5728 56.4674L80.4394 47.5306Z" stroke="#80CCF9" stroke-width="5.04904" stroke-linecap="round" stroke-linejoin="round"/>
</svg>
