<svg width="149" height="181" viewBox="0 0 149 181" fill="none" xmlns="http://www.w3.org/2000/svg">
<rect x="0.5" y="0.563477" width="148" height="180" rx="8" fill="#F0FDF4"/>
<path d="M113.167 37.5635H35.8337C30.4949 37.5635 26.167 41.8914 26.167 47.2301V85.8968C26.167 91.2356 30.4949 95.5635 35.8337 95.5635H113.167C118.506 95.5635 122.834 91.2356 122.834 85.8968V47.2301C122.834 41.8914 118.506 37.5635 113.167 37.5635Z" stroke="#16A34A" stroke-width="9.66667" stroke-linecap="round" stroke-linejoin="round"/>
<path d="M74.4997 76.2298C79.8384 76.2298 84.1663 71.9019 84.1663 66.5632C84.1663 61.2244 79.8384 56.8965 74.4997 56.8965C69.1609 56.8965 64.833 61.2244 64.833 66.5632C64.833 71.9019 69.1609 76.2298 74.4997 76.2298Z" stroke="#4ADE80" stroke-width="9.66667" stroke-linecap="round" stroke-linejoin="round"/>
<path d="M45.5 66.5635H45.5483M103.5 66.5635H103.548" stroke="#4ADE80" stroke-width="9.66667" stroke-linecap="round" stroke-linejoin="round"/>
<rect x="42.5" y="124.563" width="64" height="36" rx="16" fill="#DCFCE7"/>
<path d="M54.252 150.563V132.875H61.404C62.508 132.875 63.436 133.075 64.188 133.475C64.94 133.875 65.548 134.459 66.012 135.227C66.476 135.979 66.812 136.907 67.02 138.011C67.228 139.099 67.332 140.339 67.332 141.731C67.332 143.619 67.108 145.219 66.66 146.531C66.228 147.843 65.572 148.843 64.692 149.531C63.812 150.219 62.716 150.563 61.404 150.563H54.252ZM56.676 148.403H61.188C62.068 148.403 62.78 148.139 63.324 147.611C63.868 147.067 64.268 146.299 64.524 145.307C64.78 144.299 64.908 143.107 64.908 141.731C64.908 140.467 64.836 139.411 64.692 138.563C64.548 137.699 64.324 137.011 64.02 136.499C63.716 135.971 63.324 135.595 62.844 135.371C62.38 135.147 61.828 135.035 61.188 135.035H56.676V148.403ZM74.1444 150.563C73.3924 150.563 72.7284 150.451 72.1524 150.227C71.5924 149.987 71.1604 149.595 70.8564 149.051C70.5524 148.491 70.4004 147.747 70.4004 146.819V132.875H72.8244V146.459C72.8244 146.971 72.9124 147.371 73.0884 147.659C73.2644 147.931 73.4964 148.115 73.7844 148.211C74.0724 148.307 74.3844 148.355 74.7204 148.355H80.8404V150.563H74.1444ZM83.1973 150.563V132.875H90.3733C90.9013 132.875 91.4453 132.947 92.0053 133.091C92.5653 133.219 93.0773 133.483 93.5413 133.883C94.0213 134.267 94.4053 134.843 94.6933 135.611C94.9813 136.379 95.1253 137.395 95.1253 138.659C95.1253 139.923 94.9733 140.947 94.6693 141.731C94.3813 142.515 93.9973 143.115 93.5173 143.531C93.0373 143.947 92.5173 144.227 91.9573 144.371C91.3973 144.515 90.8613 144.587 90.3493 144.587C90.0933 144.587 89.7413 144.579 89.2933 144.563C88.8613 144.547 88.4053 144.523 87.9253 144.491C87.4453 144.459 86.9973 144.427 86.5813 144.395C86.1653 144.363 85.8453 144.331 85.6213 144.299V150.563H83.1973ZM85.6213 142.427H90.0133C90.5253 142.427 90.9813 142.315 91.3813 142.091C91.7973 141.851 92.1173 141.467 92.3413 140.939C92.5813 140.395 92.7013 139.643 92.7013 138.683C92.7013 137.739 92.5813 137.003 92.3413 136.475C92.1173 135.947 91.8133 135.579 91.4293 135.371C91.0453 135.147 90.6213 135.035 90.1573 135.035H85.6213V142.427Z" fill="#16A34A"/>
</svg>
