<svg width="117" height="117" viewBox="0 0 117 117" fill="none" xmlns="http://www.w3.org/2000/svg">
<path d="M97.167 29.5635H19.8337C14.4949 29.5635 10.167 33.8914 10.167 39.2301V77.8968C10.167 83.2356 14.4949 87.5635 19.8337 87.5635H97.167C102.506 87.5635 106.834 83.2356 106.834 77.8968V39.2301C106.834 33.8914 102.506 29.5635 97.167 29.5635Z" stroke="#16A34A" stroke-width="9.66667" stroke-linecap="round" stroke-linejoin="round"/>
<path d="M58.4997 68.2298C63.8384 68.2298 68.1663 63.9019 68.1663 58.5632C68.1663 53.2244 63.8384 48.8965 58.4997 48.8965C53.1609 48.8965 48.833 53.2244 48.833 58.5632C48.833 63.9019 53.1609 68.2298 58.4997 68.2298Z" stroke="#4ADE80" stroke-width="9.66667" stroke-linecap="round" stroke-linejoin="round"/>
<path d="M29.5 58.5635H29.5483M87.5 58.5635H87.5483" stroke="#4ADE80" stroke-width="9.66667" stroke-linecap="round" stroke-linejoin="round"/>
</svg>
