<svg width="23" height="23" viewBox="0 0 23 23" fill="none" xmlns="http://www.w3.org/2000/svg">
<path fill-rule="evenodd" clip-rule="evenodd" d="M13.5717 7.9174C13.2717 7.9174 12.984 7.79824 12.7719 7.58612C12.5598 7.37401 12.4406 7.08632 12.4406 6.78634C12.4406 6.48636 12.5598 6.19867 12.7719 5.98655C12.984 5.77444 13.2717 5.65527 13.5717 5.65527H19.227C19.527 5.65527 19.8146 5.77444 20.0268 5.98655C20.2389 6.19867 20.358 6.48636 20.358 6.78634V12.4417C20.358 12.7416 20.2389 13.0293 20.0268 13.2414C19.8146 13.4536 19.527 13.5727 19.227 13.5727C18.927 13.5727 18.6393 13.4536 18.4272 13.2414C18.2151 13.0293 18.0959 12.7416 18.0959 12.4417V9.51673L13.2402 14.3724C13.0281 14.5844 12.7405 14.7035 12.4406 14.7035C12.1407 14.7035 11.853 14.5844 11.6409 14.3724L9.04739 11.7789L4.19173 16.6345C3.97841 16.8406 3.6927 16.9546 3.39614 16.952C3.09958 16.9494 2.81589 16.8304 2.60618 16.6207C2.39648 16.411 2.27752 16.1273 2.27495 15.8308C2.27237 15.5342 2.38637 15.2485 2.59241 15.0352L8.24773 9.37987C8.45984 9.16783 8.74747 9.04871 9.04739 9.04871C9.34731 9.04871 9.63495 9.16783 9.84705 9.37987L12.4406 11.9734L16.4966 7.9174H13.5717Z" fill="url(#paint0_linear_931_1136)"/>
<defs>
<linearGradient id="paint0_linear_931_1136" x1="11.3165" y1="5.65527" x2="11.3165" y2="16.952" gradientUnits="userSpaceOnUse">
<stop offset="0.51" stop-color="#80CCF9"/>
<stop offset="1" stop-color="#F0F8FF"/>
</linearGradient>
</defs>
</svg>
