<?xml version="1.0" encoding="UTF-8"?>
<svg id="Calque_1" data-name="Calque 1" xmlns="http://www.w3.org/2000/svg" viewBox="0 0 595.28 592.2">
  <defs>
    <style>
      .cls-1 {
        fill: #fff;
        stroke: #fff;
        stroke-miterlimit: 3.86;
        stroke-width: .2px;
      }

      .cls-2, .cls-3, .cls-4 {
        stroke-width: 0px;
      }

      .cls-2, .cls-5 {
        fill: #f37021;
      }

      .cls-3 {
        fill-rule: evenodd;
      }

      .cls-3, .cls-4 {
        fill: #77787b;
      }

      .cls-5 {
        stroke: #f37021;
      }
    </style>
  </defs>
  <path class="cls-3" d="M546.51,415.87v-126.6c0-139.84-113.36-253.21-253.21-253.21S40.11,149.43,40.11,289.27c0,.17,50.64.17,50.64,0,0-111.88,90.69-202.58,202.56-202.58s202.57,90.7,202.57,202.58v126.6h50.64Z"/>
  <path class="cls-2" d="M293.5,353.54l-43.15-43.15v-65.39s43.15,43.14,43.15,43.14l98.23-98.23c-25.13-25.14-59.86-40.68-98.24-40.68-76.72,0-138.91,62.2-138.91,138.93s62.19,138.94,138.91,138.94,138.93-62.21,138.93-138.94c0-21.47-4.88-41.81-13.57-59.96l-125.35,125.34Z"/>
  <g>
    <path class="cls-4" d="M378.07,540.69c-12.64-3.88-15.2-14.8-14.42-26.87h18.26c0,8.32.36,15.33,10.41,15.33,6.17,0,9.19-3.97,9.19-9.89,0-15.7-36.78-16.68-36.78-42.62,0-13.64,6.53-24.52,28.81-24.52,17.78,0,26.62,7.97,25.41,26.2h-17.78c0-6.52-1.09-13.15-8.48-13.15-5.93,0-9.44,3.25-9.44,9.28,0,16.55,36.79,15.1,36.79,42.51,0,15.1-7.42,21.29-16.49,23.73h-25.48Z"/>
    <path class="cls-4" d="M464.5,480.37c.13-8.1-1.2-15.2-10.89-15.2-11.37,0-11.37,15.34-11.37,32.23,0,27.27,2.67,32.11,13.07,32.11,3.03,0,6.3-.73,9.08-1.69v-19.31h-9.92v-13.41h28.2v44.19c-1.94.38-5.01.91-8.46,1.4h-31.26c-16.93-4.21-19.21-17.62-19.21-44.26,0-21.98,1.1-44.31,30.98-44.31,17.91,0,29.04,10.02,27.96,28.25h-18.16Z"/>
    <path class="cls-4" d="M517.17,452.12c15.97-.03,24.69,6.21,25.9,20.23v5.96h-17.79c.01-6.35-1.58-13.15-8.96-13.15-5.94,0-9.45,3.25-9.45,9.28,0,15.3,31.44,15.23,36.2,36.76v12.64c-1.94,10.19-8.33,14.81-15.88,16.85h-25.48c-12.65-3.88-15.2-14.8-14.43-26.87h18.27c0,8.32.37,15.33,10.43,15.33,6.15,0,9.18-3.97,9.18-9.89,0-15.7-36.79-16.68-36.79-42.62,0-13.64,6.54-24.46,28.81-24.52h0Z"/>
    <polygon class="cls-2" points="308.73 540.66 578.97 540.66 578.97 544.15 308.73 544.15 308.73 540.66 308.73 540.66"/>
    <polygon class="cls-2" points="542.94 436.07 546.44 436.07 546.44 562.17 542.94 562.17 542.94 436.07 542.94 436.07"/>
  </g>
  <g>
    <path class="cls-5" d="M43.42,309.58l-.36-4.91,38.56-2.79.36,4.91-38.56,2.79Z"/>
    <path class="cls-5" d="M56.24,321.55l-1.11.19c-5.18.86-6.27,4.41-5.76,7.53.64,3.86,2.77,6.55,7.32,5.79,8.46-1.41,4.67-18.37,16.14-20.28,6.77-1.12,11.16,3.09,12.22,9.49,1.16,6.98-1.58,11.45-9.4,12.42l-.84-5.07c4.18-.64,6.71-2.42,5.95-7.02-.48-2.91-2.45-5.62-6.58-4.94-8.41,1.4-4.35,18.32-16.45,20.33-8.04,1.33-11.55-3.79-12.59-10.08-1.97-11.24,6.64-12.67,10.31-13.17l.8,4.81Z"/>
    <path class="cls-5" d="M63.46,346.35l12.14-3.71c7.38-2.25,13.25.1,15.64,7.94,2.39,7.84-1.16,13.07-8.54,15.32l-12.14,3.71c-10.25,3.13-15.45.57-17.84-7.27-2.39-7.84.5-12.86,10.74-15.99ZM68.89,364.85l12.5-3.82c7.74-2.36,6.37-7.77,5.91-9.25-.45-1.49-2.34-6.74-10.07-4.37l-12.5,3.82c-8.09,2.47-9.42,5.46-8.06,9.91,1.36,4.45,4.13,6.19,12.22,3.71Z"/>
    <path class="cls-5" d="M55.27,382.95l-1.38-3.31,45.29-5.28,1.38,3.31-45.29,5.28Z"/>
    <path class="cls-5" d="M71.35,405.58l-2.25-4.39,34.43-17.67,2.25,4.39-34.43,17.67Z"/>
    <path class="cls-5" d="M77.27,416.51l32.58-20.85,10.75,16.79-3.61,2.31-8.09-12.63-10.47,6.7,7.51,11.73-3.61,2.31-7.51-11.73-11.28,7.22,8.26,12.9-3.61,2.31-10.92-17.06Z"/>
    <path class="cls-5" d="M126.67,436.89c1.72-1.36,3.3-2.89,3.59-4.47.29-1.57-.85-3.61-1.51-4.39-2.61-3.12-5.53-2.78-6.04-2.56-.43.15-1.79.03-6.88,4.29l-7.93,6.63c-7.27,6.08-6.14,9.18-3.71,12.1.96,1.15,4.29,4.3,10.12-.5l3.26,3.9c-9.23,7.99-14.76,1.38-16.37-.55-3.09-3.7-7.58-9.57,3.93-19.19l8.38-7c8.38-7,13.86-5.3,18.73.54,4.91,5.88,3.76,10.68-2.3,15.12l-3.26-3.91Z"/>
    <path class="cls-5" d="M127.73,477.57l2.71-3.32c18.04-4.9,22.3-5.02,26.36-10,1.86-2.28,2-4.73-.45-6.73-2.86-2.34-5.33-.42-7.19,1.94l-3.9-3.18c3.57-5.04,8.52-6.19,13.41-2.19,5.18,4.24,5.74,8.64,1.5,13.82-5.25,6.43-10.25,5.94-25.68,9.66l11.4,9.32-2.71,3.32-15.47-12.64Z"/>
    <path class="cls-5" d="M169.72,463.56l16.18,10.41-2.32,3.61-26.14,22.31-4.69-3.02,26.55-22.05-11.9-7.66,2.32-3.6Z"/>
    <path class="cls-5" d="M201.18,502.77c-4.25,8.72-8.38,17.32-17.44,12.9-9.06-4.42-4.83-12.97-.58-21.69,4.39-9.01,8.33-17.46,17.49-13,9.15,4.46,4.92,12.78.53,21.78ZM187.17,497.01c-2.75,5.64-6.54,12.56-1.62,14.95,4.91,2.4,8.03-4.85,10.78-10.49,4.39-9.01,7.05-14.57,2.52-16.78-4.53-2.21-7.28,3.31-11.67,12.32Z"/>
    <path class="cls-5" d="M226.95,512.22c-3.19,9.16-6.27,18.18-15.78,14.87-9.51-3.31-6.33-12.29-3.14-21.45,3.29-9.46,6.2-18.31,15.81-14.97,9.61,3.34,6.39,12.09,3.1,21.55ZM212.37,508.17c-2.06,5.92-5,13.23.16,15.02,5.16,1.8,7.39-5.76,9.45-11.68,3.29-9.46,5.26-15.29.51-16.95-4.75-1.65-6.83,4.14-10.12,13.6Z"/>
    <path class="cls-5" d="M240.86,534.62l-4.8-1.11,7.14-30.96-6.27,2.4,1.06-4.59c1.32-.24,5.37-2.06,7.11-2.92l4.13.95-8.36,36.23Z"/>
  </g>
  <g>
    <path class="cls-1" d="M133.25,136.85l.54.52c2.53,2.42,4.86,1.59,6.32.07,1.81-1.88,2.39-4.09.18-6.22-4.13-3.96-11.68,4.84-17.27-.53-3.3-3.17-2.8-7.2.19-10.32,3.27-3.4,6.75-3.73,10.39.07l-2.38,2.47c-2.01-1.98-3.97-2.62-6.12-.38-1.36,1.42-2.03,3.55-.01,5.48,4.1,3.93,11.52-4.99,17.43.68,3.92,3.76,2.58,7.68-.36,10.75-5.22,5.54-9.42,1.51-11.15-.25l2.25-2.35Z"/>
    <path class="cls-1" d="M142.65,102.99l2.51-2.18,5.16,16.67,6.45,7.42-2.48,2.16-6.44-7.42-15.71-7.51,2.78-2.41,11.98,6.11-4.24-12.84Z"/>
    <path class="cls-1" d="M162.24,110.63l.44.61c2.04,2.84,4.48,2.45,6.19,1.22,2.12-1.52,3.1-3.58,1.3-6.08-3.33-4.64-12.35,2.63-16.87-3.66-2.66-3.71-1.44-7.58,2.07-10.1,3.83-2.75,7.3-2.43,10.19,1.96l-2.78,2c-1.62-2.31-3.43-3.3-5.95-1.49-1.59,1.15-2.64,3.12-1.01,5.38,3.31,4.61,12.23-2.8,16.99,3.84,3.16,4.41,1.14,8.01-2.31,10.49-6.14,4.49-9.53-.23-10.91-2.28l2.64-1.89Z"/>
    <path class="cls-1" d="M180.44,77.44l1.44,2.47-5.86,3.43,11.58,19.8-2.84,1.66-11.58-19.8-5.86,3.43-1.44-2.47,14.56-8.51Z"/>
    <path class="cls-1" d="M196.55,98.19l-11.02-23.33,12.02-5.68,1.22,2.58-9.05,4.27,3.54,7.5,8.4-3.97,1.22,2.59-8.4,3.97,3.82,8.08,9.24-4.37,1.22,2.59-12.21,5.77Z"/>
    <path class="cls-1" d="M215.58,89.6l-2.92.97-8.19-24.47,5.05-1.69,13.04,18.48.07-.02-.63-22.63,5.15-1.72,8.19,24.47-3.12,1.04-7.28-21.76-.07.02.43,24.05-2.95.99-13.99-19.52-.07.02,7.28,21.76Z"/>
    <path class="cls-1" d="M257.06,59.84c-.2-1.45-.54-2.88-1.34-3.58-.8-.7-2.36-.74-3.03-.63-2.68.44-3.47,2.23-3.52,2.6-.06.3-.59,1.04.12,5.41l1.11,6.8c1.01,6.24,3.18,6.65,5.68,6.24.99-.16,3.93-1,3.15-5.98l3.35-.54c1.44,8.02-4.23,8.94-5.89,9.21-3.17.51-8.07,1.09-9.68-8.78l-1.16-7.19c-1.17-7.19,1.67-9.75,6.68-10.57,5.04-.82,7.4,1.48,7.89,6.46l-3.35.54Z"/>
    <path class="cls-1" d="M268.48,77.23l-1.81-25.73,13.26-.93.2,2.85-9.98.7.58,8.27,9.27-.65.2,2.85-9.27.65.62,8.91,10.19-.72.2,2.85-13.47.95Z"/>
    <path class="cls-1" d="M289.65,64.4l-.15,11.85-3.28-.04.31-25.77,8.89.11c4.57.06,6.13,3.29,6.1,6.5-.04,3.03-1.74,5.33-4.79,5.83v.07c2.96.5,4.02,1.51,4.13,6.69.02,1.11.33,5.14.81,6.76l-3.43-.04c-.91-1.8-.65-5.15-.89-8.58-.22-3.14-2.75-3.32-3.85-3.33l-3.86-.05ZM289.69,61.55l4.92.06c2.36.03,3.52-1.99,3.55-4.24.02-1.86-.88-3.94-3.41-3.97l-4.96-.06-.1,8.21Z"/>
    <path class="cls-1" d="M322.73,52.22l-.24,2.85-6.76-.57-1.93,22.85-3.28-.28,1.93-22.85-6.76-.57.24-2.85,16.8,1.41Z"/>
    <path class="cls-1" d="M327.67,78.99l-3.25-.46,3.62-25.54,3.25.46-3.62,25.54Z"/>
    <path class="cls-1" d="M333.48,79.87l5.04-25.3,12.54,2.5-.56,2.8-9.32-1.86-1.62,8.13,8.83,1.76-.56,2.8-8.83-1.76-2.3,11.56-3.22-.64Z"/>
    <path class="cls-1" d="M352.88,84.22l-3.18-.83,6.53-24.95,3.18.83-6.53,24.95Z"/>
    <path class="cls-1" d="M375.66,71.77c.5-1.38.87-2.8.5-3.79-.38-1-1.74-1.76-2.39-1.98-2.57-.87-4.12.34-4.33.64-.2.24-1.01.64-2.43,4.83l-2.22,6.53c-2.04,5.99-.31,7.37,2.09,8.18.95.32,3.94.96,5.59-3.8l3.22,1.09c-2.49,7.76-7.94,5.91-9.53,5.37-3.04-1.04-7.65-2.83-4.42-12.3l2.34-6.9c2.34-6.9,6.05-7.83,10.86-6.2,4.84,1.64,5.85,4.78,3.94,9.42l-3.22-1.09Z"/>
    <path class="cls-1" d="M393.75,71.47l3.79,1.75-3.2,26.93-3.34-1.54.89-6.36-9.05-4.18-4.33,4.77-3.01-1.39,18.25-19.98ZM394.28,75.06l-.06-.03-9.43,10.79,7.48,3.46,2.01-14.22Z"/>
    <path class="cls-1" d="M420.3,85.6l-1.43,2.47-5.87-3.4-11.47,19.84-2.85-1.64,11.48-19.84-5.87-3.4,1.43-2.47,14.59,8.44Z"/>
    <path class="cls-1" d="M413.29,112.07l-2.71-1.86,14.56-21.29,2.71,1.86-14.56,21.29Z"/>
    <path class="cls-1" d="M424.27,108.19l5.36-6.55c3.26-3.98,7.38-4.85,11.61-1.39,4.23,3.46,4.19,7.67.93,11.65l-5.36,6.55c-4.53,5.52-8.36,6.03-12.58,2.57-4.23-3.46-4.49-7.32.04-12.84ZM434.13,116.44l5.52-6.74c3.41-4.17.66-6.66-.15-7.32-.8-.66-3.79-2.87-7.21,1.3l-5.52,6.74c-3.57,4.37-3.21,6.51-.8,8.48,2.4,1.97,4.58,1.9,8.15-2.46Z"/>
    <path class="cls-1" d="M466.06,124.69l-18.65,17.82-3.11-3.25,9.14-22.82-.06-.05-16.17,15.45-2.02-2.12,18.65-17.82,3.21,3.36-9.03,22.52.05.05,15.96-15.26,2.03,2.12Z"/>
  </g>
</svg>