<svg width="793" height="793" viewBox="0 0 793 793" fill="none" xmlns="http://www.w3.org/2000/svg">
<path d="M205.018 288.316C203.798 287.59 203.396 286.012 204.136 284.8C224.013 252.252 251.812 225.252 284.957 206.332C318.846 186.987 357.168 176.748 396.189 176.612C435.211 176.477 473.603 186.449 507.625 205.559C540.9 224.249 568.887 251.055 588.989 283.464C589.737 284.671 589.346 286.252 588.132 286.986V286.986C586.917 287.721 585.338 287.33 584.589 286.124C564.947 254.475 537.609 228.296 505.108 210.041C471.859 191.366 434.341 181.62 396.207 181.753C358.073 181.885 320.623 191.891 287.505 210.796C255.132 229.276 227.976 255.644 208.554 287.429C207.814 288.641 206.237 289.042 205.018 288.316V288.316Z" fill="url(#paint0_linear_1295_5210)"/>
<path d="M594.124 297.594C595.391 296.92 596.966 297.4 597.626 298.674C616.918 335.935 625.462 377.85 622.273 419.722C619.084 461.594 604.291 501.731 579.578 535.641C578.733 536.8 577.103 537.036 575.953 536.178V536.178C574.803 535.319 574.569 533.691 575.414 532.531C599.537 499.412 613.977 460.216 617.091 419.327C620.205 378.438 611.867 337.508 593.038 301.117C592.379 299.842 592.857 298.269 594.124 297.594V297.594Z" fill="url(#paint1_linear_1295_5210)"/>
<path d="M213.39 530.653C212.44 531.317 211.13 531.084 210.475 530.127C187.732 496.877 174.284 458.138 171.544 417.922C168.804 377.706 176.873 337.502 194.896 301.474C195.415 300.437 196.681 300.028 197.713 300.557V300.557C198.745 301.085 199.152 302.35 198.634 303.387C180.958 338.736 173.045 378.18 175.733 417.637C178.422 457.093 191.612 495.099 213.919 527.724C214.573 528.681 214.341 529.99 213.39 530.653V530.653Z" fill="url(#paint2_linear_1295_5210)"/>
<path d="M569.901 544.304C570.908 545.129 571.056 546.616 570.22 547.614C549.131 572.802 522.796 593.097 493.046 607.073C462.584 621.383 429.309 628.707 395.654 628.511C361.998 628.314 328.812 620.602 298.519 605.937C268.934 591.614 242.838 571.013 222.045 545.581C221.221 544.573 221.386 543.088 222.403 542.275V542.275C223.419 541.461 224.902 541.627 225.726 542.634C246.08 567.519 271.62 587.676 300.574 601.693C330.234 616.052 362.728 623.603 395.681 623.796C428.635 623.988 461.215 616.817 491.041 602.805C520.156 589.128 545.93 569.27 566.573 544.625C567.409 543.627 568.894 543.479 569.901 544.304V544.304Z" fill="url(#paint3_linear_1295_5210)"/>
<g filter="url(#filter0_d_1295_5210)">
<circle cx="396.485" cy="396.485" r="384.485" stroke="#1EA2EC" stroke-width="6" shape-rendering="crispEdges"/>
</g>
<path d="M396.486 46.0894L388.033 60.7299L404.938 60.7299L396.486 46.0894ZM396.486 144.669L404.938 130.028L388.033 130.028L396.486 144.669ZM395.022 58.4118L395.022 66.6267L397.95 66.6267L397.95 58.4118L395.022 58.4118ZM395.022 74.8417L395.022 83.0566L397.95 83.0566L397.95 74.8417L395.022 74.8417ZM395.022 91.2716L395.022 99.4865L397.95 99.4865L397.95 91.2716L395.022 91.2716ZM395.022 107.701L395.022 115.916L397.95 115.916L397.95 107.701L395.022 107.701ZM395.022 124.131L395.022 132.346L397.95 132.346L397.95 124.131L395.022 124.131ZM396.486 46.0894L388.033 60.7299L404.938 60.7299L396.486 46.0894ZM396.486 144.669L404.938 130.028L388.033 130.028L396.486 144.669ZM395.022 58.4118L395.022 66.6267L397.95 66.6267L397.95 58.4118L395.022 58.4118ZM395.022 74.8417L395.022 83.0566L397.95 83.0566L397.95 74.8417L395.022 74.8417ZM395.022 91.2716L395.022 99.4865L397.95 99.4865L397.95 91.2716L395.022 91.2716ZM395.022 107.701L395.022 115.916L397.95 115.916L397.95 107.701L395.022 107.701ZM395.022 124.131L395.022 132.346L397.95 132.346L397.95 124.131L395.022 124.131Z" fill="#F87171"/>
<path d="M396.241 660.991L390.606 670.751L401.876 670.751L396.241 660.991ZM396.241 729.313L401.876 719.553L390.606 719.553L396.241 729.313ZM395.265 669.531L395.265 675.225L397.217 675.225L397.217 669.531L395.265 669.531ZM395.265 680.918L395.265 686.612L397.217 686.612L397.217 680.918L395.265 680.918ZM395.265 692.305L395.265 697.999L397.217 697.999L397.217 692.305L395.265 692.305ZM395.265 703.692L395.265 709.386L397.217 709.386L397.217 703.692L395.265 703.692ZM395.265 715.079L395.265 720.773L397.217 720.773L397.217 715.079L395.265 715.079ZM396.241 660.991L390.606 670.751L401.876 670.751L396.241 660.991ZM396.241 729.313L401.876 719.553L390.606 719.553L396.241 729.313ZM395.265 669.531L395.265 675.225L397.217 675.225L397.217 669.531L395.265 669.531ZM395.265 680.918L395.265 686.612L397.217 686.612L397.217 680.918L395.265 680.918ZM395.265 692.305L395.265 697.999L397.217 697.999L397.217 692.305L395.265 692.305ZM395.265 703.692L395.265 709.386L397.217 709.386L397.217 703.692L395.265 703.692ZM395.265 715.079L395.265 720.773L397.217 720.773L397.217 715.079L395.265 715.079Z" fill="#F87171"/>
<path d="M178.339 571.195L175.422 582.082L167.453 574.112L178.339 571.195ZM130.028 619.507L132.945 608.62L140.914 616.59L130.028 619.507ZM172.99 577.924L168.964 581.95L167.584 580.57L171.61 576.544L172.99 577.924ZM164.939 585.976L160.913 590.002L159.532 588.622L163.558 584.596L164.939 585.976ZM156.887 594.028L152.861 598.054L151.48 596.674L155.506 592.648L156.887 594.028ZM148.835 602.08L144.809 606.106L143.429 604.726L147.454 600.7L148.835 602.08ZM140.783 610.132L136.757 614.158L135.377 612.777L139.403 608.752L140.783 610.132ZM178.339 571.195L175.422 582.082L167.453 574.112L178.339 571.195ZM130.028 619.507L132.945 608.62L140.914 616.59L130.028 619.507ZM172.99 577.924L168.964 581.95L167.584 580.57L171.61 576.544L172.99 577.924ZM164.939 585.976L160.913 590.002L159.532 588.622L163.558 584.596L164.939 585.976ZM156.887 594.028L152.861 598.054L151.48 596.674L155.506 592.648L156.887 594.028ZM148.835 602.08L144.809 606.106L143.429 604.726L147.454 600.7L148.835 602.08ZM140.783 610.132L136.757 614.158L135.377 612.777L139.403 608.752L140.783 610.132Z" fill="#F87171"/>
<path d="M630.243 177.854L627.326 188.74L619.357 180.771L630.243 177.854ZM581.932 226.165L584.849 215.279L592.818 223.248L581.932 226.165ZM624.894 184.583L620.868 188.609L619.488 187.229L623.514 183.203L624.894 184.583ZM616.842 192.635L612.816 196.661L611.436 195.281L615.462 191.255L616.842 192.635ZM608.79 200.687L604.764 204.713L603.384 203.332L607.41 199.306L608.79 200.687ZM600.738 208.739L596.713 212.765L595.332 211.384L599.358 207.358L600.738 208.739ZM592.687 216.791L588.661 220.816L587.28 219.436L591.306 215.41L592.687 216.791ZM630.243 177.854L627.326 188.74L619.357 180.771L630.243 177.854ZM581.932 226.165L584.849 215.279L592.818 223.248L581.932 226.165ZM624.894 184.583L620.868 188.609L619.488 187.229L623.514 183.203L624.894 184.583ZM616.842 192.635L612.816 196.661L611.436 195.281L615.462 191.255L616.842 192.635ZM608.79 200.687L604.764 204.713L603.384 203.332L607.41 199.306L608.79 200.687ZM600.738 208.739L596.713 212.765L595.332 211.384L599.358 207.358L600.738 208.739ZM592.687 216.791L588.661 220.816L587.28 219.436L591.306 215.41L592.687 216.791Z" fill="#F87171"/>
<path d="M581.932 571.195L584.849 582.082L592.818 574.112L581.932 571.195ZM630.243 619.507L627.326 608.62L619.357 616.59L630.243 619.507ZM587.281 577.924L591.307 581.95L592.687 580.57L588.661 576.544L587.281 577.924ZM595.332 585.976L599.358 590.002L600.739 588.622L596.713 584.596L595.332 585.976ZM603.384 594.028L607.41 598.054L608.791 596.674L604.765 592.648L603.384 594.028ZM611.436 602.08L615.462 606.106L616.842 604.726L612.817 600.7L611.436 602.08ZM619.488 610.132L623.514 614.158L624.894 612.777L620.868 608.752L619.488 610.132ZM581.932 571.195L584.849 582.082L592.818 574.112L581.932 571.195ZM630.243 619.507L627.326 608.62L619.357 616.59L630.243 619.507ZM587.281 577.924L591.307 581.95L592.687 580.57L588.661 576.544L587.281 577.924ZM595.332 585.976L599.358 590.002L600.739 588.622L596.713 584.596L595.332 585.976ZM603.384 594.028L607.41 598.054L608.791 596.674L604.765 592.648L603.384 594.028ZM611.436 602.08L615.462 606.106L616.842 604.726L612.817 600.7L611.436 602.08ZM619.488 610.132L623.514 614.158L624.894 612.777L620.868 608.752L619.488 610.132Z" fill="#F87171"/>
<path d="M136.861 177.854L139.778 188.74L147.747 180.771L136.861 177.854ZM185.172 226.165L182.255 215.279L174.286 223.248L185.172 226.165ZM142.209 184.583L146.235 188.609L147.616 187.229L143.59 183.203L142.209 184.583ZM150.261 192.635L154.287 196.661L155.667 195.281L151.642 191.255L150.261 192.635ZM158.313 200.687L162.339 204.713L163.719 203.332L159.693 199.306L158.313 200.687ZM166.365 208.739L170.391 212.765L171.771 211.384L167.745 207.358L166.365 208.739ZM174.417 216.791L178.443 220.816L179.823 219.436L175.797 215.41L174.417 216.791ZM136.861 177.854L139.778 188.74L147.747 180.771L136.861 177.854ZM185.172 226.165L182.255 215.279L174.286 223.248L185.172 226.165ZM142.209 184.583L146.235 188.609L147.616 187.229L143.59 183.203L142.209 184.583ZM150.261 192.635L154.287 196.661L155.667 195.281L151.642 191.255L150.261 192.635ZM158.313 200.687L162.339 204.713L163.719 203.332L159.693 199.306L158.313 200.687ZM166.365 208.739L170.391 212.765L171.771 211.384L167.745 207.358L166.365 208.739ZM174.417 216.791L178.443 220.816L179.823 219.436L175.797 215.41L174.417 216.791Z" fill="#F87171"/>
<rect x="357.444" y="70.4902" width="80.0348" height="44.8976" rx="6.83224" fill="white"/>
<rect x="357.444" y="70.4902" width="80.0348" height="44.8976" rx="6.83224" stroke="#EF4444" stroke-width="1.95207"/>
<path d="M383.655 99.939L388.434 86.8504H389.944L394.723 99.939H393.247L392.123 96.7415H386.273L385.131 99.939H383.655ZM386.729 95.4238H391.631L388.978 87.9045H389.4L386.729 95.4238ZM396.468 99.939V86.8504H400.966C401.821 86.8504 402.571 87.0202 403.215 87.3598C403.859 87.6878 404.357 88.1563 404.708 88.7653C405.071 89.3627 405.253 90.0596 405.253 90.856C405.253 91.6524 405.071 92.3493 404.708 92.9467C404.357 93.544 403.859 94.0125 403.215 94.3521C402.582 94.6801 401.833 94.8441 400.966 94.8441H397.874V99.939H396.468ZM397.874 93.5264H401.036C401.599 93.5264 402.09 93.421 402.512 93.2102C402.934 92.9877 403.262 92.6773 403.496 92.2791C403.73 91.8691 403.847 91.3889 403.847 90.8384C403.847 90.2879 403.73 89.8136 403.496 89.4154C403.262 89.0171 402.934 88.7126 402.512 88.5018C402.09 88.2793 401.599 88.168 401.036 88.168H397.874V93.5264ZM407.758 99.939V86.8504H409.163V99.939H407.758Z" fill="#F87171"/>
<defs>
<filter id="filter0_d_1295_5210" x="0.6" y="0.6" width="791.771" height="791.771" filterUnits="userSpaceOnUse" color-interpolation-filters="sRGB">
<feFlood flood-opacity="0" result="BackgroundImageFix"/>
<feColorMatrix in="SourceAlpha" type="matrix" values="0 0 0 0 0 0 0 0 0 0 0 0 0 0 0 0 0 0 127 0" result="hardAlpha"/>
<feOffset/>
<feGaussianBlur stdDeviation="4.2"/>
<feComposite in2="hardAlpha" operator="out"/>
<feColorMatrix type="matrix" values="0 0 0 0 0.117647 0 0 0 0 0.635294 0 0 0 0 0.92549 0 0 0 1 0"/>
<feBlend mode="normal" in2="BackgroundImageFix" result="effect1_dropShadow_1295_5210"/>
<feBlend mode="normal" in="SourceGraphic" in2="effect1_dropShadow_1295_5210" result="shape"/>
</filter>
<linearGradient id="paint0_linear_1295_5210" x1="396.974" y1="176.611" x2="396.974" y2="628.514" gradientUnits="userSpaceOnUse">
<stop stop-color="#1EA2EC"/>
<stop offset="1" stop-color="#4ADE80"/>
</linearGradient>
<linearGradient id="paint1_linear_1295_5210" x1="396.974" y1="176.611" x2="396.974" y2="628.514" gradientUnits="userSpaceOnUse">
<stop stop-color="#1EA2EC"/>
<stop offset="1" stop-color="#4ADE80"/>
</linearGradient>
<linearGradient id="paint2_linear_1295_5210" x1="396.974" y1="176.611" x2="396.974" y2="628.514" gradientUnits="userSpaceOnUse">
<stop stop-color="#1EA2EC"/>
<stop offset="1" stop-color="#4ADE80"/>
</linearGradient>
<linearGradient id="paint3_linear_1295_5210" x1="396.974" y1="176.611" x2="396.974" y2="628.514" gradientUnits="userSpaceOnUse">
<stop stop-color="#1EA2EC"/>
<stop offset="1" stop-color="#4ADE80"/>
</linearGradient>
</defs>
</svg>
