<svg width="793" height="792" viewBox="0 0 793 792" fill="none" xmlns="http://www.w3.org/2000/svg">
<path d="M207.549 289.418C204.931 287.86 204.067 284.471 205.688 281.892C225.448 250.462 252.666 224.36 284.957 205.927C318.846 186.582 357.168 176.343 396.189 176.207C435.211 176.072 473.603 186.045 507.625 205.154C540.044 223.363 567.442 249.275 587.42 280.567C589.059 283.134 588.218 286.529 585.612 288.105V288.105C583.005 289.681 579.62 288.841 577.978 286.276C558.988 256.613 532.981 232.047 502.224 214.772C469.862 196.595 433.344 187.109 396.228 187.238C359.111 187.367 322.66 197.106 290.426 215.507C259.789 232.995 233.953 257.742 215.17 287.535C213.545 290.112 210.166 290.975 207.549 289.418V289.418Z" fill="url(#paint0_linear_1141_1743)"/>
<path d="M590.983 298.862C593.985 297.264 597.722 298.399 599.238 301.443C617.392 337.902 625.372 378.63 622.273 419.317C619.174 460.004 605.119 499.054 581.652 532.343C579.693 535.122 575.826 535.678 573.101 533.644V533.644C570.376 531.609 569.824 527.755 571.779 524.972C593.851 493.558 607.072 456.74 609.993 418.382C612.914 380.024 605.422 341.628 588.363 307.233C586.852 304.187 587.981 300.461 590.983 298.862V298.862Z" fill="url(#paint1_linear_1141_1743)"/>
<path d="M216.719 527.926C213.93 529.872 210.084 529.193 208.214 526.352C186.841 493.867 174.193 456.382 171.545 417.517C168.897 378.652 176.343 339.799 193.113 304.715C194.58 301.646 198.299 300.452 201.326 302.001V302.001C204.353 303.551 205.542 307.258 204.08 310.329C188.326 343.421 181.336 380.045 183.832 416.68C186.328 453.315 198.222 488.652 218.319 519.302C220.183 522.146 219.508 525.98 216.719 527.926V527.926Z" fill="url(#paint2_linear_1141_1743)"/>
<path d="M566.89 541.431C569.56 543.62 569.957 547.564 567.695 550.173C547.044 573.992 521.621 593.244 493.046 606.668C462.584 620.978 429.31 628.302 395.654 628.106C361.999 627.909 328.812 620.197 298.519 605.532C270.103 591.775 244.906 572.227 224.535 548.168C222.304 545.534 222.747 541.594 225.442 539.437V539.437C228.138 537.28 232.064 537.723 234.299 540.354C253.504 562.961 277.226 581.335 303.967 594.28C332.583 608.133 363.934 615.419 395.727 615.605C427.521 615.79 458.954 608.871 487.731 595.353C514.62 582.721 538.555 564.625 558.023 542.245C560.289 539.64 564.22 539.243 566.89 541.431V541.431Z" fill="url(#paint3_linear_1141_1743)"/>
<g filter="url(#filter0_d_1141_1743)">
<circle cx="396.485" cy="396.081" r="381.985" stroke="#1EA2EC" stroke-width="11" shape-rendering="crispEdges"/>
</g>
<path d="M396.485 45.6855L388.033 60.3261L404.938 60.3261L396.485 45.6855ZM396.485 144.265L404.938 129.624L388.033 129.624L396.485 144.265ZM395.021 58.008L395.021 66.2229L397.949 66.2229L397.949 58.008L395.021 58.008ZM395.021 74.4379L395.021 82.6528L397.949 82.6528L397.949 74.4379L395.021 74.4379ZM395.021 90.8678L395.021 99.0827L397.949 99.0827L397.949 90.8678L395.021 90.8678ZM395.021 107.298L395.021 115.513L397.949 115.513L397.949 107.298L395.021 107.298ZM395.021 123.728L395.021 131.943L397.949 131.943L397.949 123.728L395.021 123.728ZM396.485 45.6855L388.033 60.3261L404.938 60.3261L396.485 45.6855ZM396.485 144.265L404.938 129.624L388.033 129.624L396.485 144.265ZM395.021 58.008L395.021 66.2229L397.949 66.2229L397.949 58.008L395.021 58.008ZM395.021 74.4379L395.021 82.6528L397.949 82.6528L397.949 74.4379L395.021 74.4379ZM395.021 90.8678L395.021 99.0827L397.949 99.0827L397.949 90.8678L395.021 90.8678ZM395.021 107.298L395.021 115.513L397.949 115.513L397.949 107.298L395.021 107.298ZM395.021 123.728L395.021 131.943L397.949 131.943L397.949 123.728L395.021 123.728Z" fill="#F87171"/>
<path d="M396.24 660.587L390.605 670.347L401.875 670.347L396.24 660.587ZM396.24 728.909L401.875 719.149L390.605 719.149L396.24 728.909ZM395.264 669.127L395.264 674.821L397.216 674.821L397.216 669.127L395.264 669.127ZM395.264 680.514L395.264 686.208L397.216 686.208L397.216 680.514L395.264 680.514ZM395.264 691.901L395.264 697.595L397.216 697.595L397.216 691.901L395.264 691.901ZM395.264 703.288L395.264 708.982L397.216 708.982L397.216 703.288L395.264 703.288ZM395.264 714.675L395.264 720.369L397.216 720.369L397.216 714.675L395.264 714.675ZM396.24 660.587L390.605 670.347L401.875 670.347L396.24 660.587ZM396.24 728.909L401.875 719.149L390.605 719.149L396.24 728.909ZM395.264 669.127L395.264 674.821L397.216 674.821L397.216 669.127L395.264 669.127ZM395.264 680.514L395.264 686.208L397.216 686.208L397.216 680.514L395.264 680.514ZM395.264 691.901L395.264 697.595L397.216 697.595L397.216 691.901L395.264 691.901ZM395.264 703.288L395.264 708.982L397.216 708.982L397.216 703.288L395.264 703.288ZM395.264 714.675L395.264 720.369L397.216 720.369L397.216 714.675L395.264 714.675Z" fill="#F87171"/>
<path d="M178.339 570.792L175.422 581.678L167.453 573.709L178.339 570.792ZM130.028 619.103L132.945 608.217L140.914 616.186L130.028 619.103ZM172.99 577.521L168.964 581.547L167.584 580.167L171.61 576.141L172.99 577.521ZM164.938 585.573L160.912 589.599L159.532 588.219L163.558 584.193L164.938 585.573ZM156.886 593.625L152.86 597.651L151.48 596.27L155.506 592.244L156.886 593.625ZM148.835 601.677L144.809 605.703L143.428 604.322L147.454 600.296L148.835 601.677ZM140.783 609.729L136.757 613.754L135.376 612.374L139.402 608.348L140.783 609.729ZM178.339 570.792L175.422 581.678L167.453 573.709L178.339 570.792ZM130.028 619.103L132.945 608.217L140.914 616.186L130.028 619.103ZM172.99 577.521L168.964 581.547L167.584 580.167L171.61 576.141L172.99 577.521ZM164.938 585.573L160.912 589.599L159.532 588.219L163.558 584.193L164.938 585.573ZM156.886 593.625L152.86 597.651L151.48 596.27L155.506 592.244L156.886 593.625ZM148.835 601.677L144.809 605.703L143.428 604.322L147.454 600.296L148.835 601.677ZM140.783 609.729L136.757 613.754L135.376 612.374L139.402 608.348L140.783 609.729Z" fill="#F87171"/>
<path d="M630.243 177.45L627.326 188.336L619.356 180.367L630.243 177.45ZM581.931 225.761L584.848 214.875L592.818 222.844L581.931 225.761ZM624.894 184.179L620.868 188.205L619.488 186.825L623.514 182.799L624.894 184.179ZM616.842 192.231L612.816 196.257L611.436 194.877L615.462 190.851L616.842 192.231ZM608.79 200.283L604.764 204.309L603.384 202.929L607.41 198.903L608.79 200.283ZM600.738 208.335L596.712 212.361L595.332 210.98L599.358 206.955L600.738 208.335ZM592.686 216.387L588.661 220.413L587.28 219.032L591.306 215.006L592.686 216.387ZM630.243 177.45L627.326 188.336L619.356 180.367L630.243 177.45ZM581.931 225.761L584.848 214.875L592.818 222.844L581.931 225.761ZM624.894 184.179L620.868 188.205L619.488 186.825L623.514 182.799L624.894 184.179ZM616.842 192.231L612.816 196.257L611.436 194.877L615.462 190.851L616.842 192.231ZM608.79 200.283L604.764 204.309L603.384 202.929L607.41 198.903L608.79 200.283ZM600.738 208.335L596.712 212.361L595.332 210.98L599.358 206.955L600.738 208.335ZM592.686 216.387L588.661 220.413L587.28 219.032L591.306 215.006L592.686 216.387Z" fill="#F87171"/>
<path d="M581.932 570.792L584.849 581.678L592.818 573.709L581.932 570.792ZM630.243 619.103L627.326 608.217L619.357 616.186L630.243 619.103ZM587.28 577.521L591.306 581.547L592.687 580.167L588.661 576.141L587.28 577.521ZM595.332 585.573L599.358 589.599L600.739 588.219L596.713 584.193L595.332 585.573ZM603.384 593.625L607.41 597.651L608.79 596.27L604.764 592.244L603.384 593.625ZM611.436 601.677L615.462 605.703L616.842 604.322L612.816 600.296L611.436 601.677ZM619.488 609.729L623.514 613.754L624.894 612.374L620.868 608.348L619.488 609.729ZM581.932 570.792L584.849 581.678L592.818 573.709L581.932 570.792ZM630.243 619.103L627.326 608.217L619.357 616.186L630.243 619.103ZM587.28 577.521L591.306 581.547L592.687 580.167L588.661 576.141L587.28 577.521ZM595.332 585.573L599.358 589.599L600.739 588.219L596.713 584.193L595.332 585.573ZM603.384 593.625L607.41 597.651L608.79 596.27L604.764 592.244L603.384 593.625ZM611.436 601.677L615.462 605.703L616.842 604.322L612.816 600.296L611.436 601.677ZM619.488 609.729L623.514 613.754L624.894 612.374L620.868 608.348L619.488 609.729Z" fill="#F87171"/>
<path d="M136.86 177.45L139.777 188.336L147.747 180.367L136.86 177.45ZM185.172 225.761L182.255 214.875L174.285 222.844L185.172 225.761ZM142.209 184.179L146.235 188.205L147.615 186.825L143.589 182.799L142.209 184.179ZM150.261 192.231L154.287 196.257L155.667 194.877L151.641 190.851L150.261 192.231ZM158.313 200.283L162.339 204.309L163.719 202.929L159.693 198.903L158.313 200.283ZM166.365 208.335L170.391 212.361L171.771 210.98L167.745 206.955L166.365 208.335ZM174.417 216.387L178.443 220.413L179.823 219.032L175.797 215.006L174.417 216.387ZM136.86 177.45L139.777 188.336L147.747 180.367L136.86 177.45ZM185.172 225.761L182.255 214.875L174.285 222.844L185.172 225.761ZM142.209 184.179L146.235 188.205L147.615 186.825L143.589 182.799L142.209 184.179ZM150.261 192.231L154.287 196.257L155.667 194.877L151.641 190.851L150.261 192.231ZM158.313 200.283L162.339 204.309L163.719 202.929L159.693 198.903L158.313 200.283ZM166.365 208.335L170.391 212.361L171.771 210.98L167.745 206.955L166.365 208.335ZM174.417 216.387L178.443 220.413L179.823 219.032L175.797 215.006L174.417 216.387Z" fill="#F87171"/>
<rect x="357.444" y="70.0864" width="80.0348" height="44.8976" rx="6.83224" fill="white"/>
<rect x="357.444" y="70.0864" width="80.0348" height="44.8976" rx="6.83224" stroke="#EF4444" stroke-width="1.95207"/>
<path d="M383.655 99.5352L388.433 86.4465H389.944L394.723 99.5352H393.247L392.123 96.3377H386.272L385.13 99.5352H383.655ZM386.729 95.02H391.631L388.978 87.5007H389.4L386.729 95.02ZM396.468 99.5352V86.4465H400.966C401.821 86.4465 402.57 86.6164 403.215 86.956C403.859 87.284 404.357 87.7525 404.708 88.3615C405.071 88.9589 405.253 89.6557 405.253 90.4522C405.253 91.2486 405.071 91.9455 404.708 92.5428C404.357 93.1402 403.859 93.6087 403.215 93.9483C402.582 94.2763 401.833 94.4403 400.966 94.4403H397.874V99.5352H396.468ZM397.874 93.1226H401.036C401.598 93.1226 402.09 93.0172 402.512 92.8064C402.933 92.5838 403.261 92.2735 403.496 91.8752C403.73 91.4653 403.847 90.9851 403.847 90.4346C403.847 89.8841 403.73 89.4098 403.496 89.0116C403.261 88.6133 402.933 88.3088 402.512 88.098C402.09 87.8755 401.598 87.7642 401.036 87.7642H397.874V93.1226ZM407.757 99.5352V86.4465H409.163V99.5352H407.757Z" fill="#F87171"/>
<defs>
<filter id="filter0_d_1141_1743" x="0.6" y="0.195704" width="791.771" height="791.771" filterUnits="userSpaceOnUse" color-interpolation-filters="sRGB">
<feFlood flood-opacity="0" result="BackgroundImageFix"/>
<feColorMatrix in="SourceAlpha" type="matrix" values="0 0 0 0 0 0 0 0 0 0 0 0 0 0 0 0 0 0 127 0" result="hardAlpha"/>
<feOffset/>
<feGaussianBlur stdDeviation="4.2"/>
<feComposite in2="hardAlpha" operator="out"/>
<feColorMatrix type="matrix" values="0 0 0 0 0.117647 0 0 0 0 0.635294 0 0 0 0 0.92549 0 0 0 1 0"/>
<feBlend mode="normal" in2="BackgroundImageFix" result="effect1_dropShadow_1141_1743"/>
<feBlend mode="normal" in="SourceGraphic" in2="effect1_dropShadow_1141_1743" result="shape"/>
</filter>
<linearGradient id="paint0_linear_1141_1743" x1="396.974" y1="176.206" x2="396.974" y2="628.11" gradientUnits="userSpaceOnUse">
<stop stop-color="#1EA2EC"/>
<stop offset="1" stop-color="#4ADE80"/>
</linearGradient>
<linearGradient id="paint1_linear_1141_1743" x1="396.974" y1="176.206" x2="396.974" y2="628.11" gradientUnits="userSpaceOnUse">
<stop stop-color="#1EA2EC"/>
<stop offset="1" stop-color="#4ADE80"/>
</linearGradient>
<linearGradient id="paint2_linear_1141_1743" x1="396.974" y1="176.206" x2="396.974" y2="628.11" gradientUnits="userSpaceOnUse">
<stop stop-color="#1EA2EC"/>
<stop offset="1" stop-color="#4ADE80"/>
</linearGradient>
<linearGradient id="paint3_linear_1141_1743" x1="396.974" y1="176.206" x2="396.974" y2="628.11" gradientUnits="userSpaceOnUse">
<stop stop-color="#1EA2EC"/>
<stop offset="1" stop-color="#4ADE80"/>
</linearGradient>
</defs>
</svg>
